<?xml version="1.0" encoding="UTF-8"?>
<!DOCTYPE svg PUBLIC "-//W3C//DTD SVG 1.1//EN" "http://www.w3.org/Graphics/SVG/1.1/DTD/svg11.dtd">
<!-- Creator: CorelDRAW X8 -->
<svg xmlns="http://www.w3.org/2000/svg" xml:space="preserve" width="220.133mm" height="273.05mm" version="1.1" style="shape-rendering:geometricPrecision; text-rendering:geometricPrecision; image-rendering:optimizeQuality; fill-rule:evenodd; clip-rule:evenodd"
viewBox="0 0 22013 27305"
 xmlns:xlink="http://www.w3.org/1999/xlink">
 <defs>
  <style type="text/css">
   <![CDATA[
    .str0 {stroke:#00a75d;stroke-width:423.33}
    .fil0 {fill:none}
   ]]>
  </style>
 </defs>
 <g id="Слой_x0020_1">
  <metadata id="CorelCorpID_0Corel-Layer"/>
  <path class="fil0 str0" d="M450 20897l8359 6037c179,103 362,95 506,12 216,-104 1146,-1475 1322,-1720 283,-392 576,-784 852,-1181 135,-195 175,-367 117,-552 -79,-254 -182,-301 -409,-464 -232,-167 -1040,-682 -1098,-868 -71,-226 61,-809 139,-1086 337,-1179 750,-666 1248,-957 239,-140 274,-338 444,-545 458,124 321,689 1143,1009 214,83 418,72 655,5 398,-113 380,-230 601,-331 360,223 368,713 1240,977 480,146 1026,230 1298,-306 184,-362 -94,-916 -224,-1293 -128,-373 -167,-606 -244,-962 -26,-118 -49,-261 74,-315 125,-66 209,37 332,124 482,340 1168,763 1719,542 526,-209 534,-729 496,-1222 -27,-347 141,-348 438,-338 555,19 806,-432 732,-956 -70,-498 -167,-760 -464,-1233 -415,-662 -595,-783 -250,-1266 394,-551 -144,-1243 -468,-1888 -69,-136 -309,-524 -60,-596 102,-39 348,125 885,30 1041,-185 63,-1329 81,-2380 3,-182 99,-323 283,-311 156,10 332,196 490,296 901,566 1289,-992 798,-1978 -138,-277 -351,-563 -361,-819 -12,-309 151,-449 162,-905 16,-675 -420,-1015 -22,-1258 840,-514 419,-1206 400,-2155 -6,-306 24,-581 42,-885 17,-274 114,-762 30,-912 -208,-26 -620,206 -839,305 -142,65 -255,106 -401,168 -995,420 -1710,233 -2115,706 -432,506 -131,761 -547,771 -1373,31 -1043,342 -1672,535 -333,102 -544,-22 -912,-73 -480,-66 -1248,83 -1681,487 -284,264 -249,632 -26,857 116,118 397,264 478,377 106,149 1,328 -166,393 -580,226 -1392,114 -1753,162 -612,81 -580,685 -379,1125 138,303 500,638 -419,511l-676 -119c-170,-29 -520,-64 -661,-56 -717,41 -542,760 -1208,627 -819,-163 -1214,-352 -1992,-190 -547,113 -831,482 -659,991 85,248 178,446 -181,517 -492,98 -954,298 -1013,861 -50,468 397,898 736,1186 113,97 238,194 359,281 173,126 185,103 209,278 -121,194 -421,179 -616,194 -527,41 -959,0 -1324,30 -234,19 -427,2 -645,206 -577,540 143,1568 712,1862 90,46 258,127 353,155 164,49 218,45 376,177 -53,268 -138,346 -129,654 21,704 609,1107 1224,1193 150,21 210,61 300,196 -62,157 -286,286 -354,526 -207,725 503,804 -464,1522 -284,211 -670,420 -979,508 -201,57 -388,-131 -578,-269 -200,-145 -401,-289 -601,-434 -297,-215 -715,-514 -1077,-80 -312,374 -1367,1890 -1740,2406 -277,384 -530,800 -226,1104z"/>
 </g>
</svg>
