<?xml version="1.0" encoding="UTF-8"?>
<!DOCTYPE svg PUBLIC "-//W3C//DTD SVG 1.1//EN" "http://www.w3.org/Graphics/SVG/1.1/DTD/svg11.dtd">
<!-- Creator: CorelDRAW X8 -->
<svg xmlns="http://www.w3.org/2000/svg" xml:space="preserve" width="178.153mm" height="38.1mm" version="1.1" style="shape-rendering:geometricPrecision; text-rendering:geometricPrecision; image-rendering:optimizeQuality; fill-rule:evenodd; clip-rule:evenodd"
viewBox="0 0 17815 3810"
 xmlns:xlink="http://www.w3.org/1999/xlink">
 <defs>
  <style type="text/css">
   <![CDATA[
    .fil0 {fill:#FEFEFE}
   ]]>
  </style>
 </defs>
 <g id="Слой_x0020_1">
  <metadata id="CorelCorpID_0Corel-Layer"/>
  <path class="fil0" d="M12221 1264l21 1557c115,-1 41,-22 127,-45 62,36 35,68 138,37 77,-24 89,-35 148,0 -7,-197 -20,-388 -13,-582 101,246 200,432 345,618 150,195 308,317 515,453 1181,777 2570,531 3714,-176 202,-126 407,-241 579,-384 -65,24 -186,103 -256,143 -184,105 -656,344 -833,384 51,-54 452,-224 528,-315 -154,47 -501,253 -650,265 84,-24 775,-488 906,-612 21,-19 13,-10 29,-30 -106,46 -539,363 -741,432l714 -548c28,-27 9,-2 28,-32 -84,41 -175,117 -262,175 -87,59 -170,112 -262,168 -1067,645 -2175,932 -3282,170 -255,-175 -280,-213 -444,-430 -96,-127 -243,-407 -270,-609 50,-31 128,-127 182,-177 34,-32 53,-41 94,-80 33,-31 67,-59 106,-83 -4,-2 -9,-7 -11,-5 0,0 -34,-6 -46,-45 39,-33 65,-53 83,-101 -178,-5 -68,-105 -309,-171 -37,44 -76,83 -119,136 -36,45 -78,100 -117,152 -76,102 -147,220 -226,311 -3,-134 2,-492 -40,-593 -23,46 -12,126 -13,190 -107,-49 -50,-96 -72,-210 -71,6 -11,53 -115,49 -80,-3 -72,-30 -176,-12zm-10936 673l-64 -56 64 56zm-480 -1421l4 0 731 1069 -357 -247 662 870 -560 -271 593 895 -725 -339 -12 335c1,264 -378,321 -412,29 -11,-94 -3,-209 -14,-342l-535 338 379 -923 -524 337 472 -843 -332 227 630 -1135zm416 1365l0 0zm-38 -543l0 0zm2779 840l-85 -94 85 94zm-447 -2178l6 0 880 1706 -480 -427 815 1400 -774 -501 709 1424 -1005 -631 -80 492c-46,387 -614,402 -610,-33 1,-140 33,-309 42,-506l-850 400 727 -1289 -832 400 848 -1154 -530 274 1134 -1555zm362 2084l0 0zm44 -805l0 0zm2341 -877l12 -8 18 21 12 -7 12 -3 14 22 12 -2 13 -2 4 26 13 -1 3 10 1 6 1 1 1 1 2 1 8 2 1 3 10 6 -2 25 10 7 10 9 -14 23 10 9 7 11 -19 19 7 12 0 0c0,0 0,1 -1,1l4 13 -24 12 3 13 1 15 -28 4 0 14 -3 14 -28 -4 -3 14 -2 1c-1,0 -1,0 -2,0 0,0 -1,1 -1,1 -1,0 -2,1 -3,1 0,0 -1,1 -1,1 -1,0 -1,0 -2,0 -1,1 -3,1 -4,2 -1,0 -1,0 -1,0 -2,1 -4,2 -5,2 -1,0 -2,0 -2,1 -1,0 -2,0 -3,0 -1,1 -1,1 -2,1 0,0 -1,0 -1,0 -1,1 -2,1 -3,1 0,0 0,0 -1,0 0,0 -1,0 -2,1 0,0 0,0 0,0 -1,0 -2,0 -3,0 0,0 0,0 0,0 -1,0 -2,1 -3,1 0,0 0,0 -1,0 0,0 -1,0 -1,0 0,0 0,0 -1,0 -1,0 -2,1 -2,1 -1,0 -2,0 -2,0 -1,0 -1,0 -1,0 -1,0 -2,0 -3,0 0,0 -1,0 -1,0 -1,1 -1,1 -2,1 0,0 -1,0 -2,0 -1,0 -3,0 -4,0 0,0 -1,0 -1,0l-11 5 -20 -15 -11 5 -13 5 -12 -26 -14 5 -13 0 -7 -25 -13 -1 -10 -5 -4 -23 -11 -5 0 -1c-1,-1 -1,-2 -1,-3l-13 -7 13 -26 -12 -7 -1 -4 -10 -10 18 -21 -10 -10 -4 -12 19 -17 -4 -12 -1 -13 23 -11 0 -12 2 -13 26 -3 3 -13 5 -13 27 8 5 -14 9 -9 23 10 9 -9 1 0c1,0 1,0 1,0 1,0 3,0 4,0 1,0 1,0 2,0zm-612 0l12 -9 18 23 12 -8 13 -3 12 23 13 -3 7 2 9 0 5 26 14 1 11 5 0 25 12 5 8 9 -5 23 8 9 1 2c0,0 0,0 0,1l5 10 -10 21 5 11 4 12 -20 16 4 12 2 14 -27 8 2 14 -2 13 -26 2 -3 13 0 0 -4 3 -1 0 -8 8 -23 0 -7 8 -10 9 -23 -12 -9 9 -12 7 -18 -21 -12 8 -13 3 -12 -24 -13 3 -12 -1 -7 -24 -13 -2 -12 -4 2 -27 -13 -4 -12 -7 12 -26 -12 -7 -8 -10 14 -22 -8 -10 -3 -12 17 -17 -3 -12 -1 -12 23 -11 -1 -13 0 0 3 -12 25 -4 2 -12 6 -13 26 5 5 -12 9 -9 24 10 9 -9 3 -1c0,0 0,0 0,0 2,0 3,0 4,0 1,0 2,0 2,0zm5726 1578c-114,35 -497,178 -571,-80 -37,-131 49,-647 41,-702 -4,-34 -1,-17 -10,-32l-40 188c-29,-38 -9,-121 -33,-192 -19,54 -12,80 -47,126 -204,15 -272,-175 -293,84l-37 388c-12,335 150,584 473,663 168,42 336,21 488,-18l-8 466c91,0 55,-7 119,-34 65,-28 53,1 92,25 89,55 118,-54 227,16 15,-272 24,-545 37,-818 4,-91 52,-732 -11,-804l0 197c-94,-52 -41,-110 -61,-203 -53,-33 -59,6 -104,23 -54,19 -83,2 -134,-6 -139,-19 -100,45 -102,171 -4,183 -18,360 -26,542zm-4117 -732c44,34 34,2 34,48 -32,32 -29,18 -67,38 56,49 43,78 22,158 -31,122 -48,652 -185,876 -76,124 -113,117 -293,125 8,117 57,50 101,133l-93 43c11,79 40,58 79,113 -2,2 -6,4 -8,5l-49 46c386,0 502,-76 643,-353 102,-200 142,-573 170,-827l287 3 30 1156c73,24 72,-15 122,-32 53,-17 46,20 110,33 118,-30 35,-72 166,-9l-30 -1044c0,-74 13,-103 18,-152 6,-60 -42,-61 -27,-125 13,-55 45,-31 17,-122 -41,-131 3,-75 -10,-115 -291,2 -785,14 -1037,2zm1897 338c-82,-124 5,-326 -204,-164 -476,368 -448,1136 68,1375 167,77 483,97 659,24 187,-78 316,-199 399,-368 339,-684 -128,-1393 -825,-1190 -14,132 62,49 94,148 -32,47 -52,34 -92,68 1,124 127,76 82,195 102,3 209,-54 295,14 39,30 115,140 136,213 61,214 -71,438 -206,493 -202,82 -442,13 -504,-159 -52,-146 -21,-303 72,-420 38,-49 55,-51 83,-100 -73,42 -128,122 -188,179 -2,-170 133,-202 261,-318 -67,-4 -55,22 -130,10zm4992 -341c-7,51 -22,130 -28,211 -71,-20 -39,-136 -52,-223l-46 56c-75,2 -159,-34 -229,-18l-10 22c-26,85 12,-72 -6,24 -2,11 -3,39 -3,51 -1,28 -1,55 -2,83l-8 591c-2,267 -5,535 0,801 106,-6 57,-19 137,-49 63,28 35,66 127,37 78,-25 70,-54 126,4 0,-196 -30,-151 78,-260 102,-103 443,-471 507,-506 -12,297 -60,580 -60,888 113,-4 64,-37 153,-53 144,150 127,-69 236,52 7,-274 29,-508 58,-777 14,-128 92,-652 52,-739 -24,34 -10,42 -27,75 -56,-58 -31,-132 -37,-232l-26 22c-2,2 -5,5 -7,8 -9,10 -13,18 -24,30 -83,3 -216,-46 -234,-8 -67,145 58,21 -130,222 -63,66 -106,120 -181,182 -82,67 -296,331 -367,359l3 -853zm-7618 26c-34,-131 26,-163 20,-290 -139,-75 -649,-68 -835,-68 -47,-28 -4,-31 -40,-92 -2,2 -4,6 -6,7 -1,1 -4,6 -5,8 -29,36 -31,45 -109,38 -58,-5 -78,-19 -135,-5 -19,36 -12,78 -10,125 22,547 -78,1509 -29,1878 104,2 44,-17 119,-49 43,19 54,52 117,39 39,-9 67,-33 126,-39 115,-13 559,71 702,103 8,1 61,12 67,12 34,1 13,0 34,-4l-79 -49c53,-46 44,-12 120,-13 -18,-169 42,-148 45,-292 -172,-108 -708,-132 -899,-152 -2,-77 -7,-334 29,-378 37,-38 523,-57 611,-63 0,-97 -27,-90 -14,-189 8,-64 -5,-152 -25,-199l-557 29 0 -325 708 27c-4,-2 -16,-7 -20,-9 -33,-17 -24,8 -31,-26 40,-35 31,-13 96,-24z"/>
 </g>
</svg>
